<svg xmlns="http://www.w3.org/2000/svg" xmlns:xlink="http://www.w3.org/1999/xlink" width="1024" zoomAndPan="magnify" viewBox="0 0 768 576" height="768" preserveAspectRatio="xMidYMid meet" version="1.0"><defs><clipPath id="fdab8180d2"><path d="M 101.714844 7.679688 L 666.464844 7.679688 L 666.464844 572.429688 L 101.714844 572.429688 Z M 101.714844 7.679688 " clip-rule="nonzero"/></clipPath></defs><path fill="#00578f" d="M 663.195312 289.84375 C 663.195312 294.414062 663.085938 298.980469 662.859375 303.546875 C 662.636719 308.113281 662.300781 312.671875 661.851562 317.21875 C 661.402344 321.769531 660.84375 326.304688 660.171875 330.828125 C 659.503906 335.347656 658.722656 339.851562 657.828125 344.335938 C 656.9375 348.816406 655.9375 353.277344 654.824219 357.710938 C 653.714844 362.144531 652.496094 366.550781 651.167969 370.925781 C 649.84375 375.300781 648.410156 379.636719 646.867188 383.941406 C 645.328125 388.246094 643.683594 392.511719 641.933594 396.734375 C 640.183594 400.957031 638.332031 405.132812 636.378906 409.265625 C 634.425781 413.398438 632.371094 417.480469 630.214844 421.511719 C 628.058594 425.542969 625.808594 429.519531 623.457031 433.441406 C 621.105469 437.363281 618.660156 441.222656 616.121094 445.023438 C 613.582031 448.824219 610.953125 452.5625 608.226562 456.234375 C 605.503906 459.90625 602.695312 463.507812 599.792969 467.039062 C 596.894531 470.574219 593.910156 474.035156 590.839844 477.421875 C 587.769531 480.808594 584.617188 484.117188 581.386719 487.351562 C 578.152344 490.582031 574.84375 493.734375 571.457031 496.804688 C 568.070312 499.875 564.609375 502.859375 561.074219 505.757812 C 557.542969 508.660156 553.9375 511.46875 550.265625 514.195312 C 546.59375 516.917969 542.859375 519.546875 539.058594 522.085938 C 535.257812 524.628906 531.398438 527.074219 527.476562 529.421875 C 523.554688 531.773438 519.578125 534.023438 515.546875 536.179688 C 511.515625 538.335938 507.433594 540.390625 503.300781 542.34375 C 499.167969 544.296875 494.992188 546.148438 490.769531 547.898438 C 486.542969 549.648438 482.28125 551.292969 477.976562 552.832031 C 473.671875 554.375 469.332031 555.808594 464.960938 557.132812 C 460.585938 558.460938 456.179688 559.679688 451.746094 560.789062 C 447.3125 561.902344 442.851562 562.902344 438.371094 563.792969 C 433.886719 564.6875 429.382812 565.46875 424.863281 566.136719 C 420.339844 566.808594 415.804688 567.367188 411.253906 567.816406 C 406.707031 568.265625 402.148438 568.601562 397.582031 568.824219 C 393.015625 569.050781 388.449219 569.160156 383.878906 569.160156 C 379.304688 569.160156 374.738281 569.050781 370.171875 568.824219 C 365.605469 568.601562 361.046875 568.265625 356.5 567.816406 C 351.949219 567.367188 347.414062 566.808594 342.890625 566.136719 C 338.371094 565.46875 333.867188 564.6875 329.382812 563.792969 C 324.902344 562.902344 320.441406 561.902344 316.007812 560.789062 C 311.574219 559.679688 307.167969 558.460938 302.796875 557.132812 C 298.421875 555.808594 294.082031 554.375 289.777344 552.832031 C 285.472656 551.292969 281.210938 549.648438 276.984375 547.898438 C 272.761719 546.148438 268.585938 544.296875 264.453125 542.34375 C 260.320312 540.390625 256.238281 538.335938 252.207031 536.179688 C 248.175781 534.023438 244.199219 531.773438 240.277344 529.421875 C 236.359375 527.070312 232.496094 524.628906 228.695312 522.085938 C 224.894531 519.546875 221.160156 516.917969 217.488281 514.195312 C 213.816406 511.46875 210.210938 508.660156 206.679688 505.757812 C 203.144531 502.859375 199.683594 499.875 196.296875 496.804688 C 192.910156 493.734375 189.601562 490.582031 186.367188 487.351562 C 183.136719 484.117188 179.984375 480.808594 176.914062 477.421875 C 173.84375 474.035156 170.859375 470.574219 167.960938 467.039062 C 165.0625 463.507812 162.25 459.902344 159.527344 456.234375 C 156.804688 452.5625 154.171875 448.824219 151.632812 445.023438 C 149.09375 441.222656 146.648438 437.363281 144.296875 433.441406 C 141.945312 429.519531 139.695312 425.542969 137.539062 421.511719 C 135.386719 417.480469 133.332031 413.398438 131.375 409.265625 C 129.421875 405.132812 127.570312 400.957031 125.820312 396.734375 C 124.070312 392.511719 122.425781 388.246094 120.886719 383.941406 C 119.347656 379.636719 117.914062 375.300781 116.585938 370.925781 C 115.257812 366.550781 114.039062 362.144531 112.929688 357.710938 C 111.816406 353.277344 110.816406 348.816406 109.925781 344.335938 C 109.035156 339.851562 108.253906 335.347656 107.582031 330.828125 C 106.910156 326.304688 106.351562 321.769531 105.902344 317.21875 C 105.453125 312.671875 105.117188 308.113281 104.894531 303.546875 C 104.671875 298.980469 104.558594 294.414062 104.558594 289.84375 C 104.558594 285.269531 104.671875 280.703125 104.894531 276.136719 C 105.117188 271.570312 105.453125 267.011719 105.902344 262.464844 C 106.351562 257.914062 106.910156 253.378906 107.582031 248.859375 C 108.253906 244.335938 109.035156 239.832031 109.925781 235.351562 C 110.816406 230.867188 111.816406 226.40625 112.929688 221.972656 C 114.039062 217.539062 115.257812 213.136719 116.585938 208.761719 C 117.914062 204.386719 119.347656 200.046875 120.886719 195.742188 C 122.425781 191.4375 124.070312 187.175781 125.820312 182.953125 C 127.570312 178.726562 129.421875 174.550781 131.375 170.417969 C 133.332031 166.285156 135.386719 162.203125 137.539062 158.171875 C 139.695312 154.140625 141.945312 150.164062 144.296875 146.242188 C 146.648438 142.324219 149.09375 138.460938 151.632812 134.660156 C 154.171875 130.859375 156.804688 127.125 159.527344 123.453125 C 162.25 119.78125 165.0625 116.179688 167.960938 112.644531 C 170.859375 109.109375 173.84375 105.648438 176.914062 102.261719 C 179.984375 98.875 183.136719 95.566406 186.367188 92.335938 C 189.601562 89.101562 192.910156 85.949219 196.296875 82.878906 C 199.683594 79.8125 203.144531 76.824219 206.679688 73.925781 C 210.210938 71.027344 213.816406 68.214844 217.488281 65.492188 C 221.160156 62.769531 224.894531 60.136719 228.695312 57.597656 C 232.496094 55.058594 236.359375 52.613281 240.277344 50.261719 C 244.199219 47.914062 248.175781 45.660156 252.207031 43.503906 C 256.238281 41.351562 260.320312 39.296875 264.453125 37.339844 C 268.585938 35.386719 272.761719 33.535156 276.984375 31.785156 C 281.210938 30.035156 285.472656 28.390625 289.777344 26.851562 C 294.082031 25.3125 298.421875 23.878906 302.796875 22.550781 C 307.167969 21.222656 311.574219 20.003906 316.007812 18.894531 C 320.441406 17.785156 324.902344 16.78125 329.382812 15.890625 C 333.867188 15 338.371094 14.21875 342.890625 13.546875 C 347.414062 12.875 351.949219 12.316406 356.5 11.867188 C 361.046875 11.421875 365.605469 11.085938 370.171875 10.859375 C 374.738281 10.636719 379.304688 10.523438 383.878906 10.523438 C 388.449219 10.523438 393.015625 10.636719 397.582031 10.859375 C 402.148438 11.085938 406.707031 11.421875 411.253906 11.867188 C 415.804688 12.316406 420.339844 12.875 424.863281 13.546875 C 429.382812 14.21875 433.886719 15 438.371094 15.890625 C 442.851562 16.78125 447.3125 17.785156 451.746094 18.894531 C 456.179688 20.003906 460.585938 21.222656 464.960938 22.550781 C 469.332031 23.878906 473.671875 25.3125 477.976562 26.851562 C 482.28125 28.390625 486.542969 30.035156 490.769531 31.785156 C 494.992188 33.535156 499.167969 35.386719 503.300781 37.339844 C 507.433594 39.296875 511.515625 41.351562 515.546875 43.503906 C 519.578125 45.660156 523.554688 47.914062 527.476562 50.261719 C 531.398438 52.613281 535.257812 55.058594 539.058594 57.597656 C 542.859375 60.136719 546.59375 62.769531 550.265625 65.492188 C 553.9375 68.214844 557.542969 71.027344 561.074219 73.925781 C 564.609375 76.824219 568.070312 79.8125 571.457031 82.878906 C 574.84375 85.949219 578.152344 89.101562 581.386719 92.335938 C 584.617188 95.566406 587.769531 98.875 590.839844 102.261719 C 593.910156 105.648438 596.894531 109.109375 599.792969 112.644531 C 602.695312 116.179688 605.503906 119.78125 608.226562 123.453125 C 610.953125 127.125 613.582031 130.859375 616.121094 134.660156 C 618.660156 138.460938 621.105469 142.324219 623.457031 146.242188 C 625.808594 150.164062 628.058594 154.140625 630.214844 158.171875 C 632.371094 162.203125 634.425781 166.285156 636.378906 170.417969 C 638.332031 174.550781 640.183594 178.726562 641.933594 182.953125 C 643.683594 187.175781 645.328125 191.4375 646.867188 195.742188 C 648.410156 200.046875 649.84375 204.386719 651.167969 208.761719 C 652.496094 213.136719 653.714844 217.539062 654.824219 221.972656 C 655.9375 226.40625 656.9375 230.867188 657.828125 235.351562 C 658.722656 239.832031 659.503906 244.335938 660.171875 248.859375 C 660.84375 253.378906 661.402344 257.914062 661.851562 262.464844 C 662.300781 267.011719 662.636719 271.570312 662.859375 276.136719 C 663.085938 280.703125 663.195312 285.269531 663.195312 289.84375 Z M 663.195312 289.84375 " fill-opacity="1" fill-rule="nonzero"/><g clip-path="url(#fdab8180d2)"><path fill="#ffc610" d="M 383.878906 572.011719 C 228.296875 572.011719 101.714844 445.429688 101.714844 289.84375 C 101.714844 134.253906 228.296875 7.679688 383.878906 7.679688 C 539.457031 7.679688 666.039062 134.261719 666.039062 289.84375 C 666.039062 445.425781 539.457031 572.011719 383.878906 572.011719 Z M 383.878906 13.367188 C 231.421875 13.367188 107.402344 137.386719 107.402344 289.84375 C 107.402344 442.296875 231.421875 566.324219 383.878906 566.324219 C 536.332031 566.324219 660.355469 442.296875 660.355469 289.84375 C 660.355469 137.386719 536.324219 13.367188 383.878906 13.367188 Z M 383.878906 13.367188 " fill-opacity="1" fill-rule="nonzero"/></g><path fill="#e63e30" d="M 639.191406 289.84375 C 639.191406 294.019531 639.089844 298.195312 638.886719 302.371094 C 638.679688 306.542969 638.371094 310.710938 637.964844 314.867188 C 637.554688 319.027344 637.042969 323.171875 636.429688 327.304688 C 635.816406 331.4375 635.101562 335.554688 634.285156 339.652344 C 633.472656 343.75 632.554688 347.824219 631.539062 351.878906 C 630.527344 355.933594 629.410156 359.957031 628.199219 363.957031 C 626.984375 367.953125 625.675781 371.921875 624.269531 375.855469 C 622.859375 379.789062 621.355469 383.6875 619.757812 387.546875 C 618.160156 391.40625 616.464844 395.226562 614.679688 399.003906 C 612.894531 402.78125 611.015625 406.511719 609.046875 410.195312 C 607.074219 413.882812 605.015625 417.515625 602.867188 421.101562 C 600.71875 424.683594 598.484375 428.214844 596.164062 431.6875 C 593.84375 435.164062 591.4375 438.578125 588.949219 441.933594 C 586.460938 445.289062 583.890625 448.582031 581.238281 451.8125 C 578.585938 455.042969 575.859375 458.207031 573.054688 461.300781 C 570.246094 464.398438 567.367188 467.421875 564.414062 470.378906 C 561.457031 473.332031 558.433594 476.210938 555.335938 479.019531 C 552.242188 481.824219 549.078125 484.554688 545.847656 487.203125 C 542.617188 489.855469 539.324219 492.425781 535.96875 494.914062 C 532.613281 497.402344 529.195312 499.808594 525.722656 502.128906 C 522.25 504.449219 518.71875 506.683594 515.136719 508.832031 C 511.550781 510.980469 507.917969 513.039062 504.230469 515.011719 C 500.546875 516.980469 496.816406 518.859375 493.039062 520.644531 C 489.261719 522.429688 485.441406 524.125 481.582031 525.722656 C 477.722656 527.320312 473.824219 528.824219 469.890625 530.234375 C 465.957031 531.640625 461.988281 532.949219 457.992188 534.164062 C 453.992188 535.375 449.96875 536.492188 445.914062 537.507812 C 441.859375 538.519531 437.785156 539.4375 433.6875 540.25 C 429.589844 541.066406 425.472656 541.78125 421.339844 542.394531 C 417.207031 543.007812 413.0625 543.519531 408.902344 543.929688 C 404.742188 544.335938 400.578125 544.644531 396.40625 544.851562 C 392.230469 545.054688 388.054688 545.15625 383.878906 545.15625 C 379.699219 545.15625 375.523438 545.054688 371.347656 544.851562 C 367.175781 544.644531 363.011719 544.335938 358.851562 543.929688 C 354.695312 543.519531 350.546875 543.007812 346.414062 542.394531 C 342.28125 541.78125 338.164062 541.066406 334.066406 540.25 C 329.96875 539.4375 325.894531 538.519531 321.839844 537.507812 C 317.789062 536.492188 313.761719 535.375 309.761719 534.164062 C 305.765625 532.949219 301.796875 531.640625 297.863281 530.234375 C 293.929688 528.824219 290.03125 527.320312 286.171875 525.722656 C 282.3125 524.125 278.492188 522.429688 274.714844 520.644531 C 270.9375 518.859375 267.207031 516.980469 263.523438 515.011719 C 259.835938 513.039062 256.203125 510.980469 252.617188 508.832031 C 249.035156 506.683594 245.503906 504.449219 242.03125 502.128906 C 238.558594 499.808594 235.140625 497.402344 231.785156 494.914062 C 228.429688 492.425781 225.136719 489.855469 221.90625 487.203125 C 218.675781 484.554688 215.515625 481.824219 212.417969 479.019531 C 209.320312 476.210938 206.296875 473.332031 203.34375 470.378906 C 200.386719 467.421875 197.507812 464.398438 194.699219 461.300781 C 191.894531 458.207031 189.167969 455.042969 186.515625 451.8125 C 183.863281 448.582031 181.296875 445.289062 178.804688 441.933594 C 176.316406 438.578125 173.910156 435.164062 171.589844 431.6875 C 169.269531 428.214844 167.035156 424.683594 164.886719 421.101562 C 162.738281 417.515625 160.679688 413.882812 158.710938 410.195312 C 156.738281 406.511719 154.863281 402.78125 153.074219 399.003906 C 151.289062 395.226562 149.59375 391.40625 147.996094 387.546875 C 146.398438 383.6875 144.894531 379.789062 143.488281 375.855469 C 142.078125 371.921875 140.769531 367.953125 139.554688 363.957031 C 138.34375 359.957031 137.230469 355.933594 136.214844 351.878906 C 135.199219 347.824219 134.28125 343.75 133.46875 339.652344 C 132.652344 335.554688 131.9375 331.4375 131.324219 327.304688 C 130.710938 323.171875 130.199219 319.027344 129.792969 314.867188 C 129.382812 310.710938 129.074219 306.542969 128.871094 302.371094 C 128.664062 298.195312 128.5625 294.019531 128.5625 289.84375 C 128.5625 285.664062 128.664062 281.488281 128.871094 277.316406 C 129.074219 273.140625 129.382812 268.976562 129.792969 264.816406 C 130.199219 260.660156 130.710938 256.511719 131.324219 252.378906 C 131.9375 248.246094 132.652344 244.132812 133.46875 240.03125 C 134.28125 235.933594 135.199219 231.859375 136.214844 227.804688 C 137.230469 223.753906 138.34375 219.726562 139.554688 215.726562 C 140.769531 211.730469 142.078125 207.761719 143.488281 203.828125 C 144.894531 199.894531 146.398438 195.996094 147.996094 192.136719 C 149.59375 188.277344 151.289062 184.457031 153.074219 180.679688 C 154.863281 176.902344 156.738281 173.171875 158.710938 169.488281 C 160.679688 165.800781 162.738281 162.167969 164.886719 158.585938 C 167.035156 155 169.269531 151.472656 171.589844 147.996094 C 173.910156 144.523438 176.316406 141.109375 178.804688 137.75 C 181.296875 134.394531 183.863281 131.101562 186.515625 127.871094 C 189.167969 124.640625 191.894531 121.480469 194.699219 118.382812 C 197.507812 115.289062 200.386719 112.261719 203.34375 109.308594 C 206.296875 106.351562 209.320312 103.472656 212.417969 100.667969 C 215.515625 97.859375 218.675781 95.132812 221.90625 92.480469 C 225.136719 89.832031 228.429688 87.261719 231.785156 84.769531 C 235.140625 82.28125 238.558594 79.878906 242.03125 77.554688 C 245.503906 75.234375 249.035156 73 252.617188 70.851562 C 256.203125 68.703125 259.835938 66.644531 263.523438 64.675781 C 267.207031 62.703125 270.9375 60.828125 274.714844 59.039062 C 278.492188 57.253906 282.3125 55.5625 286.171875 53.960938 C 290.03125 52.363281 293.929688 50.859375 297.863281 49.453125 C 301.796875 48.042969 305.765625 46.734375 309.761719 45.519531 C 313.761719 44.308594 317.789062 43.195312 321.839844 42.179688 C 325.894531 41.164062 329.96875 40.25 334.066406 39.433594 C 338.164062 38.617188 342.28125 37.902344 346.414062 37.289062 C 350.546875 36.675781 354.695312 36.167969 358.851562 35.757812 C 363.011719 35.347656 367.175781 35.039062 371.347656 34.835938 C 375.523438 34.628906 379.699219 34.527344 383.878906 34.527344 C 388.054688 34.527344 392.230469 34.628906 396.40625 34.835938 C 400.578125 35.039062 404.742188 35.347656 408.902344 35.757812 C 413.0625 36.167969 417.207031 36.675781 421.339844 37.289062 C 425.472656 37.902344 429.589844 38.617188 433.6875 39.433594 C 437.785156 40.25 441.859375 41.164062 445.914062 42.179688 C 449.96875 43.195312 453.992188 44.308594 457.992188 45.519531 C 461.988281 46.734375 465.957031 48.042969 469.890625 49.453125 C 473.824219 50.859375 477.722656 52.363281 481.582031 53.960938 C 485.441406 55.5625 489.261719 57.253906 493.039062 59.039062 C 496.816406 60.828125 500.546875 62.703125 504.230469 64.675781 C 507.917969 66.644531 511.550781 68.703125 515.136719 70.851562 C 518.71875 73 522.25 75.234375 525.722656 77.554688 C 529.195312 79.878906 532.613281 82.28125 535.96875 84.769531 C 539.324219 87.261719 542.617188 89.832031 545.847656 92.480469 C 549.078125 95.132812 552.242188 97.859375 555.335938 100.667969 C 558.433594 103.472656 561.457031 106.351562 564.414062 109.308594 C 567.367188 112.261719 570.246094 115.289062 573.054688 118.382812 C 575.859375 121.480469 578.585938 124.640625 581.238281 127.871094 C 583.890625 131.101562 586.460938 134.394531 588.949219 137.75 C 591.4375 141.109375 593.84375 144.523438 596.164062 147.996094 C 598.484375 151.472656 600.71875 155 602.867188 158.585938 C 605.015625 162.167969 607.074219 165.800781 609.046875 169.488281 C 611.015625 173.171875 612.894531 176.902344 614.679688 180.679688 C 616.464844 184.457031 618.160156 188.277344 619.757812 192.136719 C 621.355469 195.996094 622.859375 199.894531 624.269531 203.828125 C 625.675781 207.761719 626.984375 211.730469 628.199219 215.726562 C 629.410156 219.726562 630.527344 223.753906 631.539062 227.804688 C 632.554688 231.859375 633.472656 235.933594 634.285156 240.03125 C 635.101562 244.132812 635.816406 248.246094 636.429688 252.378906 C 637.042969 256.511719 637.554688 260.660156 637.964844 264.816406 C 638.371094 268.976562 638.679688 273.140625 638.886719 277.316406 C 639.089844 281.488281 639.191406 285.664062 639.191406 289.84375 Z M 639.191406 289.84375 " fill-opacity="1" fill-rule="nonzero"/><path fill="#ffc610" d="M 383.878906 548 C 241.527344 548 125.71875 432.195312 125.71875 289.84375 C 125.71875 147.492188 241.527344 31.691406 383.878906 31.691406 C 526.230469 31.691406 642.035156 147.496094 642.035156 289.84375 C 642.035156 432.1875 526.230469 548 383.878906 548 Z M 383.878906 37.375 C 244.664062 37.375 131.40625 150.636719 131.40625 289.84375 C 131.40625 429.050781 244.664062 542.316406 383.878906 542.316406 C 523.089844 542.316406 636.351562 429.054688 636.351562 289.84375 C 636.351562 150.628906 523.089844 37.375 383.878906 37.375 Z M 383.878906 37.375 " fill-opacity="1" fill-rule="nonzero"/><path fill="#00578f" d="M 550.238281 151.085938 L 167.625 276.742188 C 174.414062 163.175781 268.617188 73.199219 383.859375 73.199219 C 450.71875 73.199219 510.519531 103.496094 550.238281 151.078125 Z M 550.238281 151.085938 " fill-opacity="1" fill-rule="nonzero"/><path fill="#ffc610" d="M 164.539062 280.75 L 164.789062 276.574219 C 171.695312 160.9375 267.921875 70.355469 383.859375 70.355469 C 449.121094 70.355469 510.566406 99.121094 552.421875 149.257812 L 555.109375 152.472656 Z M 383.859375 76.042969 C 272.335938 76.042969 179.53125 162.097656 170.757812 272.722656 L 545.335938 149.695312 C 504.648438 102.832031 446.035156 76.042969 383.867188 76.042969 Z M 383.859375 76.042969 " fill-opacity="1" fill-rule="nonzero"/><path fill="#00578f" d="M 599.773438 307.84375 C 590.632812 419.09375 497.464844 506.515625 383.859375 506.515625 C 318.796875 506.515625 260.394531 477.8125 220.71875 432.347656 Z M 599.773438 307.84375 " fill-opacity="1" fill-rule="nonzero"/><path fill="#ffc610" d="M 383.859375 509.351562 C 320.492188 509.351562 260.253906 481.964844 218.574219 434.210938 L 215.753906 430.984375 L 602.964844 303.804688 L 602.613281 308.074219 C 593.332031 420.941406 497.25 509.351562 383.859375 509.351562 Z M 225.726562 433.6875 C 266.1875 478.21875 323.570312 503.664062 383.859375 503.664062 C 492.867188 503.664062 585.460938 419.769531 596.546875 311.894531 L 225.71875 433.695312 Z M 225.726562 433.6875 " fill-opacity="1" fill-rule="nonzero"/><path fill="#ffc610" d="M 211.8125 403.347656 C 210.738281 403.699219 209.75 403.648438 208.839844 403.1875 C 207.929688 402.730469 207.300781 401.964844 206.945312 400.890625 L 175.589844 305.757812 C 175.238281 304.6875 175.289062 303.691406 175.75 302.78125 C 176.207031 301.878906 176.972656 301.242188 178.046875 300.890625 L 193.558594 295.777344 C 195.21875 295.230469 196.53125 295.203125 197.503906 295.691406 C 198.476562 296.183594 199.125 296.589844 199.449219 296.921875 L 253.730469 341.5 L 235.449219 286.027344 C 235.09375 284.957031 235.144531 283.964844 235.605469 283.054688 C 236.0625 282.148438 236.828125 281.511719 237.902344 281.160156 L 255.464844 275.375 C 256.535156 275.019531 257.53125 275.078125 258.441406 275.53125 C 259.34375 275.992188 259.980469 276.753906 260.332031 277.828125 L 291.6875 372.964844 C 292.011719 373.941406 291.945312 374.90625 291.507812 375.863281 C 291.0625 376.816406 290.304688 377.476562 289.230469 377.828125 L 273.574219 382.992188 C 272.011719 383.511719 270.738281 383.5 269.746094 382.953125 C 268.757812 382.417969 268.117188 382.03125 267.828125 381.804688 L 214.269531 339.417969 L 231.828125 392.691406 C 232.179688 393.765625 232.128906 394.761719 231.667969 395.664062 C 231.207031 396.574219 230.445312 397.207031 229.371094 397.558594 L 211.808594 403.347656 Z M 211.8125 403.347656 " fill-opacity="1" fill-rule="nonzero"/><path fill="#ffc610" d="M 355.730469 357.53125 C 346.75 360.496094 338.460938 361.597656 330.859375 360.859375 C 323.257812 360.121094 316.636719 357.40625 310.984375 352.730469 C 305.332031 348.050781 300.839844 341.335938 297.527344 332.578125 C 296.046875 328.417969 294.617188 324.238281 293.234375 320.042969 C 291.851562 315.847656 290.5 311.589844 289.1875 307.261719 C 286.679688 298.355469 286.320312 290.28125 288.09375 283.035156 C 289.875 275.800781 293.582031 269.574219 299.222656 264.367188 C 304.859375 259.160156 312.117188 255.082031 321.003906 252.152344 C 329.78125 249.261719 338.011719 248.226562 345.695312 249.042969 C 353.367188 249.867188 360.105469 252.648438 365.886719 257.394531 C 371.671875 262.144531 376.15625 268.863281 379.347656 277.542969 C 380.953125 281.773438 382.457031 285.988281 383.835938 290.179688 C 385.21875 294.367188 386.503906 298.605469 387.691406 302.863281 C 390.226562 311.875 390.621094 319.941406 388.851562 327.066406 C 387.082031 334.1875 383.371094 340.3125 377.703125 345.421875 C 372.027344 350.539062 364.707031 354.578125 355.734375 357.53125 Z M 348.78125 336.457031 C 353.949219 334.75 357.65625 331.804688 359.894531 327.597656 C 362.136719 323.398438 362.226562 317.855469 360.167969 310.957031 C 358.945312 306.597656 357.710938 302.515625 356.457031 298.710938 C 355.199219 294.90625 353.800781 290.992188 352.253906 286.953125 C 350.550781 282.433594 348.460938 278.984375 346 276.601562 C 343.539062 274.226562 340.765625 272.785156 337.683594 272.285156 C 334.601562 271.792969 331.34375 272.105469 327.933594 273.230469 C 324.613281 274.328125 321.859375 275.988281 319.675781 278.222656 C 317.496094 280.457031 316.09375 283.269531 315.480469 286.664062 C 314.867188 290.058594 315.21875 294.078125 316.539062 298.730469 C 317.789062 302.863281 319.046875 306.824219 320.296875 310.628906 C 321.546875 314.433594 322.933594 318.46875 324.449219 322.734375 C 326.996094 329.464844 330.390625 333.863281 334.636719 335.921875 C 338.886719 337.988281 343.597656 338.164062 348.769531 336.457031 Z M 348.78125 336.457031 " fill-opacity="1" fill-rule="nonzero"/><path fill="#ffc610" d="M 421.246094 334.3125 C 420.171875 334.667969 419.183594 334.613281 418.273438 334.15625 C 417.363281 333.699219 416.734375 332.933594 416.378906 331.859375 L 385.027344 236.722656 C 384.671875 235.65625 384.722656 234.660156 385.183594 233.75 C 385.640625 232.847656 386.40625 232.210938 387.480469 231.855469 L 428.460938 218.347656 C 436.558594 215.683594 444.015625 214.601562 450.839844 215.113281 C 457.664062 215.625 463.574219 217.8125 468.585938 221.679688 C 473.59375 225.546875 477.351562 231.289062 479.859375 238.894531 C 482.335938 246.410156 482.695312 253.164062 480.933594 259.148438 C 479.175781 265.140625 475.683594 270.285156 470.453125 274.609375 C 465.222656 278.933594 458.5625 282.421875 450.464844 285.09375 L 433.050781 290.835938 L 443.613281 322.886719 C 443.964844 323.960938 443.890625 324.960938 443.378906 325.882812 C 442.875 326.808594 442.085938 327.445312 441.011719 327.796875 L 421.253906 334.308594 Z M 425.945312 270.785156 L 443.066406 265.140625 C 447.257812 263.757812 450.253906 261.582031 452.035156 258.613281 C 453.8125 255.644531 453.976562 251.964844 452.535156 247.570312 C 451.3125 243.863281 449.207031 241.101562 446.230469 239.265625 C 443.246094 237.441406 439.316406 237.328125 434.4375 238.933594 L 417.3125 244.582031 L 425.949219 270.777344 Z M 425.945312 270.785156 " fill-opacity="1" fill-rule="nonzero"/><path fill="#ffc610" d="M 520.191406 301.703125 C 519.117188 302.054688 518.128906 302.003906 517.21875 301.542969 C 516.308594 301.089844 515.675781 300.320312 515.324219 299.246094 L 483.96875 204.113281 C 483.617188 203.042969 483.667969 202.046875 484.128906 201.136719 C 484.582031 200.234375 485.351562 199.597656 486.425781 199.246094 L 554.773438 176.71875 C 555.84375 176.367188 556.839844 176.425781 557.75 176.878906 C 558.652344 177.339844 559.285156 178.105469 559.636719 179.175781 L 564.171875 192.933594 C 564.527344 194.007812 564.472656 195 564.019531 195.902344 C 563.558594 196.8125 562.796875 197.441406 561.722656 197.796875 L 515.035156 213.1875 L 521.542969 232.941406 L 565.015625 218.617188 C 566.082031 218.261719 567.085938 218.335938 568.011719 218.847656 C 568.933594 219.355469 569.574219 220.152344 569.925781 221.21875 L 574.121094 233.949219 C 574.445312 234.925781 574.382812 235.894531 573.945312 236.847656 C 573.503906 237.804688 572.746094 238.457031 571.671875 238.808594 L 528.203125 253.136719 L 534.90625 273.480469 L 582.765625 257.703125 C 583.839844 257.351562 584.828125 257.40625 585.738281 257.863281 C 586.648438 258.324219 587.277344 259.085938 587.632812 260.160156 L 592.167969 273.917969 C 592.519531 274.992188 592.46875 275.980469 592.007812 276.890625 C 591.546875 277.800781 590.785156 278.433594 589.710938 278.785156 L 520.191406 301.695312 Z M 520.191406 301.703125 " fill-opacity="1" fill-rule="nonzero"/></svg>