<svg xmlns="http://www.w3.org/2000/svg" xmlns:xlink="http://www.w3.org/1999/xlink" width="1024" height="768" preserveAspectRatio="xMidYMid meet" version="1.0" viewBox="0 0 768 576" zoomAndPan="magnify"><defs><clipPath id="11fa5d39ea"><path d="M 28.800781 57.601562 L 739 57.601562 L 739 488.851562 L 28.800781 488.851562 Z M 28.800781 57.601562" clip-rule="nonzero"/></clipPath></defs><g clip-path="url(#11fa5d39ea)"><path fill="#ffc610" fill-opacity="1" fill-rule="nonzero" d="M 729.238281 158.429688 L 719.890625 150.84375 L 716.230469 139.765625 C 713.507812 131.546875 706.585938 125.425781 698.09375 123.738281 C 696.601562 123.445312 695.09375 123.3125 693.609375 123.300781 C 692.636719 121.753906 691.523438 120.277344 690.191406 118.960938 L 671.890625 100.871094 L 666.367188 76.371094 C 664.460938 67.929688 658.164062 61.160156 649.875 58.648438 C 647.585938 57.957031 645.242188 57.621094 642.914062 57.621094 C 636.828125 57.621094 630.863281 59.933594 626.328125 64.257812 L 608.148438 81.582031 L 582.878906 86.488281 C 574.128906 88.1875 567.039062 94.59375 564.460938 103.125 C 561.875 111.65625 564.226562 120.917969 570.570312 127.1875 L 582.304688 138.777344 C 525.351562 116.929688 454.445312 104.277344 375.792969 104.277344 C 177.96875 104.285156 28.800781 184.074219 28.800781 289.886719 C 28.800781 327.949219 48.183594 362.609375 82.101562 391.433594 C 81.527344 392.40625 81.007812 393.417969 80.570312 394.480469 L 74.433594 409.324219 L 60.898438 418.773438 C 53.589844 423.882812 49.710938 432.609375 50.804688 441.453125 C 51.910156 450.300781 57.816406 457.8125 66.160156 460.96875 L 81.59375 466.8125 L 91.183594 479.695312 C 95.753906 485.839844 102.929688 489.386719 110.464844 489.386719 C 111.457031 489.386719 112.449219 489.324219 113.445312 489.199219 C 122.035156 488.128906 129.382812 482.523438 132.691406 474.523438 L 138.820312 459.683594 L 152.355469 450.234375 C 156.738281 447.175781 159.855469 442.800781 161.4375 437.886719 C 219.65625 461.636719 293.484375 475.488281 375.785156 475.488281 C 573.59375 475.488281 722.757812 395.699219 722.757812 289.886719 C 722.757812 263.617188 713.546875 238.957031 696.695312 216.714844 C 698.542969 215.5 700.300781 214.125 701.789062 212.398438 L 709.417969 203.5625 L 720.949219 200.132812 C 729.496094 197.589844 735.925781 190.523438 737.664062 181.777344 C 739.40625 173.03125 736.160156 164.042969 729.242188 158.421875 Z M 729.238281 158.429688"/></g><path fill="#e63e30" fill-opacity="1" fill-rule="nonzero" d="M 375.785156 451.449219 C 194.695312 451.449219 52.847656 380.484375 52.847656 289.878906 C 52.847656 199.277344 194.695312 128.324219 375.785156 128.324219 C 556.875 128.324219 698.726562 199.292969 698.726562 289.886719 C 698.726562 380.484375 556.867188 451.457031 375.785156 451.457031 Z M 375.785156 451.449219"/><path fill="#00578f" fill-opacity="1" fill-rule="nonzero" d="M 680.617188 289.886719 C 680.617188 292.234375 680.492188 294.582031 680.25 296.925781 C 680.003906 299.269531 679.636719 301.613281 679.148438 303.949219 C 678.660156 306.285156 678.050781 308.613281 677.316406 310.9375 C 676.585938 313.257812 675.730469 315.570312 674.757812 317.875 C 673.785156 320.175781 672.691406 322.46875 671.480469 324.746094 C 670.269531 327.023438 668.9375 329.285156 667.492188 331.53125 C 666.042969 333.777344 664.476562 336.007812 662.796875 338.21875 C 661.117188 340.429688 659.320312 342.617188 657.410156 344.785156 C 655.503906 346.957031 653.480469 349.101562 651.347656 351.222656 C 649.214844 353.347656 646.972656 355.441406 644.621094 357.511719 C 642.269531 359.585938 639.8125 361.625 637.246094 363.640625 C 634.683594 365.652344 632.015625 367.636719 629.242188 369.589844 C 626.46875 371.542969 623.597656 373.460938 620.625 375.347656 C 617.65625 377.230469 614.585938 379.082031 611.421875 380.898438 C 608.257812 382.710938 605 384.488281 601.648438 386.230469 C 598.296875 387.96875 594.859375 389.667969 591.332031 391.328125 C 587.804688 392.988281 584.191406 394.605469 580.496094 396.183594 C 576.800781 397.761719 573.023438 399.292969 569.167969 400.785156 C 565.308594 402.273438 561.378906 403.714844 557.371094 405.117188 C 553.363281 406.515625 549.285156 407.867188 545.136719 409.167969 C 540.988281 410.472656 536.777344 411.730469 532.496094 412.9375 C 528.21875 414.144531 523.878906 415.300781 519.480469 416.40625 C 515.078125 417.515625 510.625 418.570312 506.113281 419.574219 C 501.605469 420.578125 497.042969 421.527344 492.433594 422.425781 C 487.828125 423.324219 483.171875 424.171875 478.476562 424.960938 C 473.777344 425.753906 469.042969 426.488281 464.269531 427.167969 C 459.496094 427.851562 454.6875 428.476562 449.847656 429.046875 C 445.007812 429.617188 440.144531 430.132812 435.25 430.589844 C 430.355469 431.046875 425.441406 431.449219 420.507812 431.792969 C 415.574219 432.140625 410.625 432.425781 405.660156 432.65625 C 400.695312 432.886719 395.71875 433.058594 390.738281 433.175781 C 385.753906 433.289062 380.769531 433.347656 375.78125 433.347656 C 370.789062 433.347656 365.804688 433.289062 360.820312 433.175781 C 355.839844 433.058594 350.863281 432.886719 345.898438 432.65625 C 340.933594 432.425781 335.984375 432.140625 331.050781 431.792969 C 326.117188 431.449219 321.203125 431.046875 316.308594 430.589844 C 311.414062 430.132812 306.550781 429.617188 301.710938 429.046875 C 296.871094 428.476562 292.0625 427.851562 287.289062 427.167969 C 282.515625 426.488281 277.78125 425.753906 273.082031 424.960938 C 268.386719 424.171875 263.734375 423.324219 259.125 422.425781 C 254.515625 421.527344 249.953125 420.578125 245.445312 419.574219 C 240.933594 418.570312 236.480469 417.515625 232.082031 416.40625 C 227.679688 415.300781 223.339844 414.144531 219.0625 412.9375 C 214.78125 411.730469 210.570312 410.472656 206.421875 409.167969 C 202.273438 407.867188 198.195312 406.515625 194.1875 405.117188 C 190.179688 403.714844 186.25 402.273438 182.394531 400.785156 C 178.535156 399.292969 174.761719 397.761719 171.0625 396.183594 C 167.367188 394.605469 163.753906 392.988281 160.226562 391.328125 C 156.699219 389.667969 153.261719 387.96875 149.910156 386.230469 C 146.558594 384.488281 143.300781 382.710938 140.136719 380.898438 C 136.972656 379.082031 133.902344 377.230469 130.933594 375.347656 C 127.960938 373.460938 125.089844 371.542969 122.316406 369.589844 C 119.546875 367.636719 116.878906 365.652344 114.3125 363.640625 C 111.746094 361.625 109.289062 359.585938 106.9375 357.511719 C 104.585938 355.441406 102.34375 353.347656 100.210938 351.222656 C 98.078125 349.101562 96.054688 346.957031 94.148438 344.785156 C 92.238281 342.617188 90.441406 340.429688 88.761719 338.21875 C 87.082031 336.007812 85.515625 333.777344 84.070312 331.53125 C 82.621094 329.285156 81.289062 327.023438 80.078125 324.746094 C 78.867188 322.46875 77.773438 320.175781 76.800781 317.875 C 75.828125 315.570312 74.972656 313.257812 74.242188 310.9375 C 73.511719 308.613281 72.898438 306.285156 72.410156 303.949219 C 71.921875 301.613281 71.554688 299.269531 71.308594 296.925781 C 71.066406 294.582031 70.941406 292.234375 70.941406 289.886719 C 70.941406 287.539062 71.066406 285.191406 71.308594 282.847656 C 71.554688 280.503906 71.921875 278.160156 72.410156 275.824219 C 72.898438 273.488281 73.511719 271.160156 74.242188 268.835938 C 74.972656 266.515625 75.828125 264.203125 76.800781 261.898438 C 77.773438 259.597656 78.867188 257.304688 80.078125 255.027344 C 81.289062 252.75 82.621094 250.488281 84.070312 248.242188 C 85.515625 245.996094 87.082031 243.765625 88.761719 241.554688 C 90.441406 239.347656 92.238281 237.15625 94.148438 234.988281 C 96.054688 232.816406 98.078125 230.671875 100.210938 228.550781 C 102.34375 226.425781 104.585938 224.332031 106.9375 222.261719 C 109.289062 220.191406 111.746094 218.148438 114.3125 216.132812 C 116.878906 214.121094 119.546875 212.136719 122.316406 210.183594 C 125.089844 208.230469 127.960938 206.3125 130.933594 204.425781 C 133.902344 202.542969 136.972656 200.691406 140.136719 198.875 C 143.300781 197.0625 146.558594 195.285156 149.910156 193.542969 C 153.261719 191.804688 156.699219 190.105469 160.226562 188.445312 C 163.753906 186.785156 167.367188 185.167969 171.0625 183.589844 C 174.761719 182.011719 178.535156 180.480469 182.394531 178.992188 C 186.25 177.5 190.179688 176.058594 194.1875 174.660156 C 198.195312 173.257812 202.273438 171.910156 206.421875 170.605469 C 210.570312 169.300781 214.78125 168.042969 219.0625 166.835938 C 223.339844 165.628906 227.679688 164.472656 232.082031 163.367188 C 236.480469 162.257812 240.933594 161.203125 245.445312 160.199219 C 249.953125 159.195312 254.515625 158.246094 259.125 157.347656 C 263.734375 156.449219 268.386719 155.601562 273.082031 154.8125 C 277.78125 154.023438 282.515625 153.285156 287.289062 152.605469 C 292.0625 151.921875 296.871094 151.296875 301.710938 150.726562 C 306.550781 150.15625 311.414062 149.640625 316.308594 149.183594 C 321.203125 148.726562 326.117188 148.324219 331.050781 147.980469 C 335.984375 147.632812 340.933594 147.347656 345.898438 147.117188 C 350.863281 146.886719 355.839844 146.714844 360.820312 146.597656 C 365.804688 146.484375 370.789062 146.425781 375.78125 146.425781 C 380.769531 146.425781 385.753906 146.484375 390.738281 146.597656 C 395.71875 146.714844 400.695312 146.886719 405.660156 147.117188 C 410.625 147.347656 415.574219 147.632812 420.507812 147.980469 C 425.441406 148.324219 430.355469 148.726562 435.25 149.183594 C 440.144531 149.640625 445.007812 150.15625 449.847656 150.726562 C 454.6875 151.296875 459.496094 151.921875 464.269531 152.605469 C 469.042969 153.285156 473.777344 154.023438 478.476562 154.8125 C 483.171875 155.601562 487.828125 156.449219 492.433594 157.347656 C 497.042969 158.246094 501.605469 159.195312 506.113281 160.199219 C 510.625 161.203125 515.078125 162.257812 519.480469 163.367188 C 523.878906 164.472656 528.21875 165.628906 532.496094 166.835938 C 536.777344 168.042969 540.988281 169.300781 545.136719 170.605469 C 549.285156 171.910156 553.363281 173.257812 557.371094 174.660156 C 561.378906 176.058594 565.308594 177.5 569.167969 178.992188 C 573.023438 180.480469 576.800781 182.011719 580.496094 183.589844 C 584.191406 185.167969 587.804688 186.785156 591.332031 188.445312 C 594.859375 190.105469 598.296875 191.804688 601.648438 193.542969 C 605 195.285156 608.257812 197.0625 611.421875 198.875 C 614.585938 200.691406 617.65625 202.542969 620.625 204.425781 C 623.597656 206.3125 626.46875 208.230469 629.242188 210.183594 C 632.015625 212.136719 634.683594 214.121094 637.246094 216.132812 C 639.8125 218.148438 642.269531 220.1875 644.621094 222.261719 C 646.972656 224.332031 649.214844 226.425781 651.347656 228.550781 C 653.480469 230.671875 655.503906 232.816406 657.410156 234.988281 C 659.320312 237.15625 661.117188 239.347656 662.796875 241.554688 C 664.476562 243.765625 666.042969 245.996094 667.492188 248.242188 C 668.9375 250.488281 670.269531 252.75 671.480469 255.027344 C 672.691406 257.304688 673.785156 259.597656 674.757812 261.898438 C 675.730469 264.203125 676.585938 266.515625 677.316406 268.835938 C 678.050781 271.160156 678.660156 273.488281 679.148438 275.824219 C 679.636719 278.160156 680.003906 280.503906 680.25 282.847656 C 680.492188 285.191406 680.617188 287.539062 680.617188 289.886719 Z M 680.617188 289.886719"/><path fill="#ffc610" fill-opacity="1" fill-rule="nonzero" d="M 197.628906 310.722656 L 197.90625 292.476562 C 197.90625 291.226562 199.238281 290.398438 201.921875 289.996094 C 204.601562 289.59375 206.816406 289.394531 208.578125 289.394531 L 213.980469 289.796875 C 217.484375 290.332031 219.242188 291.269531 219.242188 292.617188 L 218.6875 334.613281 C 216.832031 335.871094 213.117188 337.097656 207.527344 338.304688 C 201.9375 339.511719 195.542969 340.113281 188.335938 340.113281 C 174.941406 340.113281 164.128906 335.90625 155.914062 327.496094 C 147.683594 319.089844 143.574219 306.746094 143.574219 290.464844 C 143.574219 276.597656 147.59375 265.324219 155.628906 256.644531 C 163.671875 247.972656 174.800781 243.628906 189.027344 243.628906 C 195.496094 243.628906 201.34375 244.234375 206.558594 245.4375 C 211.777344 246.644531 215.359375 248.277344 217.300781 250.335938 C 217.390625 251.050781 217.4375 252.394531 217.4375 254.363281 C 217.4375 256.328125 216.753906 259.128906 215.359375 262.746094 C 213.976562 266.371094 212.402344 269.074219 210.648438 270.863281 C 208.890625 272.65625 207.617188 273.546875 206.832031 273.546875 C 206.042969 273.546875 205.214844 273.207031 204.34375 272.542969 C 203.457031 271.867188 201.726562 271.152344 199.136719 270.394531 C 196.554688 269.640625 194.058594 269.253906 191.65625 269.253906 C 185.925781 269.253906 181.28125 271.046875 177.730469 274.621094 C 174.171875 278.203125 172.386719 283.746094 172.386719 291.261719 C 172.386719 298.78125 174.214844 304.484375 177.863281 308.375 C 181.511719 312.261719 185.710938 314.210938 190.476562 314.210938 C 195.242188 314.210938 197.609375 313.050781 197.609375 310.71875 Z M 197.628906 310.722656"/><path fill="#ffc610" fill-opacity="1" fill-rule="nonzero" d="M 258.878906 336.898438 C 258.878906 338.328125 254.492188 339.042969 245.714844 339.042969 C 236.84375 339.042969 232.410156 338.371094 232.410156 337.03125 L 232.410156 249.535156 C 232.410156 246.402344 234.121094 244.835938 237.542969 244.835938 L 264.003906 244.835938 C 288.304688 244.835938 300.449219 254.007812 300.449219 272.34375 C 300.449219 277.890625 299.347656 282.921875 297.132812 287.441406 C 294.902344 291.960938 291.769531 295.558594 287.695312 298.242188 L 305.167969 326.421875 C 304.421875 328.566406 302.023438 331.027344 297.960938 333.800781 C 292.417969 337.648438 287.847656 339.570312 284.238281 339.570312 C 280.632812 339.570312 277.964844 338.320312 276.203125 335.816406 L 263.179688 306.425781 L 258.882812 306.425781 L 258.882812 336.886719 Z M 258.878906 268.59375 L 258.878906 288.722656 L 259.574219 288.722656 C 268.34375 288.722656 272.730469 285.1875 272.730469 278.117188 C 272.730469 274.898438 271.878906 272.503906 270.175781 270.941406 C 268.457031 269.375 265.667969 268.59375 261.792969 268.59375 Z M 258.878906 268.59375"/><path fill="#ffc610" fill-opacity="1" fill-rule="nonzero" d="M 359.203125 282.144531 C 360.957031 282.144531 361.835938 285.277344 361.835938 291.539062 C 361.835938 293.421875 361.625 295.632812 361.210938 298.179688 C 360.796875 300.730469 360.03125 302.003906 358.925781 302.003906 L 341.328125 302.003906 L 341.328125 315.421875 L 366.832031 315.421875 C 368.398438 315.421875 369.457031 317.394531 370.015625 321.324219 C 370.292969 323.027344 370.429688 324.835938 370.429688 326.757812 C 370.429688 328.683594 370.152344 331.164062 369.605469 334.207031 C 369.046875 337.246094 368.128906 338.765625 366.835938 338.765625 L 319.433594 338.765625 C 315.925781 338.765625 314.175781 337.378906 314.175781 334.609375 L 314.175781 248.328125 C 314.175781 246 315.234375 244.835938 317.363281 244.835938 L 366.976562 244.835938 C 368.914062 244.835938 369.882812 248.789062 369.882812 256.710938 C 369.882812 264.632812 368.914062 268.585938 366.976562 268.585938 L 341.335938 268.585938 L 341.335938 282.140625 L 359.210938 282.140625 Z M 359.203125 282.144531"/><path fill="#ffc610" fill-opacity="1" fill-rule="nonzero" d="M 447.617188 339.042969 C 439.578125 339.042969 435.238281 337.792969 434.59375 335.285156 L 430.019531 317.976562 L 407.988281 317.976562 L 403.972656 334.621094 C 403.414062 337.398438 398.976562 338.777344 390.667969 338.777344 C 386.238281 338.777344 382.957031 338.53125 380.832031 338.039062 C 378.707031 337.546875 377.644531 337.160156 377.644531 336.898438 L 402.175781 246.050781 C 402.175781 245.335938 408.5 244.972656 421.15625 244.972656 C 433.8125 244.972656 440.140625 245.328125 440.140625 246.050781 L 464.117188 337.03125 C 464.117188 337.65625 461.988281 338.148438 457.738281 338.503906 C 453.484375 338.855469 450.117188 339.039062 447.625 339.039062 Z M 411.449219 300.933594 L 426 300.933594 L 419.761719 273.160156 L 418.933594 273.160156 Z M 411.449219 300.933594"/><path fill="#ffc610" fill-opacity="1" fill-rule="nonzero" d="M 511.511719 336.628906 C 511.511719 338.417969 506.9375 339.308594 497.789062 339.308594 C 488.644531 339.308594 484.070312 338.414062 484.070312 336.628906 L 484.070312 269.265625 L 467.4375 269.265625 C 465.863281 269.265625 464.757812 267.210938 464.109375 263.09375 C 463.832031 261.121094 463.695312 259.117188 463.695312 257.054688 C 463.695312 254.992188 463.832031 252.984375 464.109375 251.015625 C 464.757812 246.898438 465.863281 244.839844 467.4375 244.839844 L 527.71875 244.839844 C 529.292969 244.839844 530.402344 246.898438 531.050781 251.015625 C 531.328125 252.984375 531.464844 255 531.464844 257.054688 C 531.464844 259.109375 531.328125 261.128906 531.050781 263.09375 C 530.402344 267.210938 529.292969 269.265625 527.71875 269.265625 L 511.511719 269.265625 Z M 511.511719 336.628906"/><path fill="#ffc610" fill-opacity="1" fill-rule="nonzero" d="M 564.722656 318.644531 C 564.722656 318.019531 568.996094 317.707031 577.539062 317.707031 C 586.078125 317.707031 590.363281 317.976562 590.363281 318.511719 L 590.363281 337.835938 C 590.363281 338.730469 586.085938 339.175781 577.539062 339.175781 C 568.992188 339.175781 564.722656 338.90625 564.722656 338.371094 Z M 587.59375 310.589844 C 587.59375 311.125 584.28125 311.398438 577.683594 311.398438 C 571.082031 311.398438 567.777344 311.175781 567.777344 310.722656 L 565.007812 244.570312 C 565.007812 243.855469 569.230469 243.496094 577.6875 243.496094 C 586.144531 243.496094 590.375 243.808594 590.375 244.433594 L 587.605469 310.585938 Z M 587.59375 310.589844"/><path fill="#e63e30" fill-opacity="1" fill-rule="nonzero" d="M 642.910156 81.660156 L 649.984375 113.023438 L 673.296875 136.058594 L 641.125 142.308594 L 617.847656 164.488281 L 610.773438 133.125 L 587.464844 110.089844 L 619.636719 103.839844 Z M 642.910156 81.660156"/><path fill="#e63e30" fill-opacity="1" fill-rule="nonzero" d="M 693.40625 147.320312 L 699.277344 165.074219 L 714.082031 177.097656 L 695.808594 182.535156 L 683.585938 196.695312 L 677.71875 178.933594 L 662.917969 166.921875 L 681.1875 161.480469 Z M 693.40625 147.320312"/><path fill="#e63e30" fill-opacity="1" fill-rule="nonzero" d="M 102.777344 403.65625 L 116.566406 422.191406 L 138.585938 430.523438 L 119.28125 444.003906 L 110.464844 465.351562 L 96.679688 446.816406 L 74.65625 438.484375 L 93.960938 425.003906 Z M 102.777344 403.65625"/></svg>